ply
format ascii 1.0
comment Created by Blender 2.69 (sub 0) - www.blender.org, source file: ''
element vertex 128
property float x
property float y
property float z
property float nx
property float ny
property float nz
element face 62
property list uchar uint vertex_indices
end_header
-0.382682 -0.500000 -0.923880 -0.205756 0.705398 -0.678290
0.000000 0.500000 0.000000 -0.205756 0.705398 -0.678290
-0.195089 -0.500000 -0.980786 -0.205756 0.705398 -0.678290
0.000000 -0.500000 -1.000000 0.069476 0.705398 -0.705398
0.000000 0.500000 0.000000 0.069476 0.705398 -0.705398
0.195090 -0.500000 -0.980785 0.069476 0.705398 -0.705398
-0.555569 -0.500000 -0.831470 -0.334130 0.705398 -0.625116
0.000000 0.500000 0.000000 -0.334130 0.705398 -0.625116
-0.382682 -0.500000 -0.923880 -0.334130 0.705398 -0.625116
-0.707106 -0.500000 -0.707108 -0.449664 0.705398 -0.547919
0.000000 0.500000 0.000000 -0.449664 0.705398 -0.547919
-0.555569 -0.500000 -0.831470 -0.449664 0.705398 -0.547919
-0.831469 -0.500000 -0.555571 -0.547918 0.705398 -0.449666
0.000000 0.500000 0.000000 -0.547918 0.705398 -0.449666
-0.707106 -0.500000 -0.707108 -0.547918 0.705398 -0.449666
-0.923879 -0.500000 -0.382684 -0.625115 0.705398 -0.334132
0.000000 0.500000 0.000000 -0.625115 0.705398 -0.334132
-0.831469 -0.500000 -0.555571 -0.625115 0.705398 -0.334132
-0.980785 -0.500000 -0.195091 -0.678290 0.705398 -0.205758
0.000000 0.500000 0.000000 -0.678290 0.705398 -0.205758
-0.923879 -0.500000 -0.382684 -0.678290 0.705398 -0.205758
-1.000000 -0.500000 -0.000001 -0.705398 0.705398 -0.069476
0.000000 0.500000 0.000000 -0.705398 0.705398 -0.069476
-0.980785 -0.500000 -0.195091 -0.705398 0.705398 -0.069476
-0.980785 -0.500000 0.195089 -0.705398 0.705398 0.069475
0.000000 0.500000 0.000000 -0.705398 0.705398 0.069475
-1.000000 -0.500000 -0.000001 -0.705398 0.705398 0.069475
-0.923880 -0.500000 0.382683 -0.678290 0.705398 0.205756
0.000000 0.500000 0.000000 -0.678290 0.705398 0.205756
-0.980785 -0.500000 0.195089 -0.678290 0.705398 0.205756
-0.831470 -0.500000 0.555570 -0.625116 0.705398 0.334131
0.000000 0.500000 0.000000 -0.625116 0.705398 0.334131
-0.923880 -0.500000 0.382683 -0.625116 0.705398 0.334131
-0.707107 -0.500000 0.707106 -0.547919 0.705398 0.449665
0.000000 0.500000 0.000000 -0.547919 0.705398 0.449665
-0.831470 -0.500000 0.555570 -0.547919 0.705398 0.449665
-0.555571 -0.500000 0.831469 -0.449665 0.705398 0.547918
0.000000 0.500000 0.000000 -0.449665 0.705398 0.547918
-0.707107 -0.500000 0.707106 -0.449665 0.705398 0.547918
-0.382684 -0.500000 0.923879 -0.334132 0.705398 0.625116
0.000000 0.500000 0.000000 -0.334132 0.705398 0.625116
-0.555571 -0.500000 0.831469 -0.334132 0.705398 0.625116
-0.195091 -0.500000 0.980785 -0.205757 0.705398 0.678290
0.000000 0.500000 0.000000 -0.205757 0.705398 0.678290
-0.382684 -0.500000 0.923879 -0.205757 0.705398 0.678290
-0.000000 -0.500000 1.000000 -0.069476 0.705398 0.705398
0.000000 0.500000 0.000000 -0.069476 0.705398 0.705398
-0.195091 -0.500000 0.980785 -0.069476 0.705398 0.705398
0.195090 -0.500000 0.980785 0.069476 0.705398 0.705398
0.000000 0.500000 0.000000 0.069476 0.705398 0.705398
-0.000000 -0.500000 1.000000 0.069476 0.705398 0.705398
0.382683 -0.500000 0.923880 0.205757 0.705398 0.678290
0.000000 0.500000 0.000000 0.205757 0.705398 0.678290
0.195090 -0.500000 0.980785 0.205757 0.705398 0.678290
0.555570 -0.500000 0.831470 0.334131 0.705398 0.625116
0.000000 0.500000 0.000000 0.334131 0.705398 0.625116
0.382683 -0.500000 0.923880 0.334131 0.705398 0.625116
0.707107 -0.500000 0.707107 0.449665 0.705398 0.547918
0.000000 0.500000 0.000000 0.449665 0.705398 0.547918
0.555570 -0.500000 0.831470 0.449665 0.705398 0.547918
0.831470 -0.500000 0.555570 0.547918 0.705398 0.449665
0.000000 0.500000 0.000000 0.547918 0.705398 0.449665
0.707107 -0.500000 0.707107 0.547918 0.705398 0.449665
0.923880 -0.500000 0.382683 0.625116 0.705398 0.334131
0.000000 0.500000 0.000000 0.625116 0.705398 0.334131
0.831470 -0.500000 0.555570 0.625116 0.705398 0.334131
0.980785 -0.500000 0.195090 0.678290 0.705398 0.205757
0.000000 0.500000 0.000000 0.678290 0.705398 0.205757
0.923880 -0.500000 0.382683 0.678290 0.705398 0.205757
1.000000 -0.500000 -0.000000 0.705398 0.705398 0.069476
0.000000 0.500000 0.000000 0.705398 0.705398 0.069476
0.980785 -0.500000 0.195090 0.705398 0.705398 0.069476
0.980785 -0.500000 -0.195090 0.705398 0.705398 -0.069476
0.000000 0.500000 0.000000 0.705398 0.705398 -0.069476
1.000000 -0.500000 -0.000000 0.705398 0.705398 -0.069476
0.923880 -0.500000 -0.382683 0.678290 0.705398 -0.205757
0.000000 0.500000 0.000000 0.678290 0.705398 -0.205757
0.980785 -0.500000 -0.195090 0.678290 0.705398 -0.205757
0.831470 -0.500000 -0.555570 0.625116 0.705398 -0.334131
0.000000 0.500000 0.000000 0.625116 0.705398 -0.334131
0.923880 -0.500000 -0.382683 0.625116 0.705398 -0.334131
0.707107 -0.500000 -0.707107 0.547918 0.705398 -0.449665
0.000000 0.500000 0.000000 0.547918 0.705398 -0.449665
0.831470 -0.500000 -0.555570 0.547918 0.705398 -0.449665
0.555570 -0.500000 -0.831470 0.449665 0.705398 -0.547918
0.000000 0.500000 0.000000 0.449665 0.705398 -0.547918
0.707107 -0.500000 -0.707107 0.449665 0.705398 -0.547918
0.382683 -0.500000 -0.923880 0.334131 0.705398 -0.625116
0.000000 0.500000 0.000000 0.334131 0.705398 -0.625116
0.555570 -0.500000 -0.831470 0.334131 0.705398 -0.625116
0.000000 0.500000 0.000000 -0.069475 0.705398 -0.705398
0.000000 -0.500000 -1.000000 -0.069475 0.705398 -0.705398
-0.195089 -0.500000 -0.980786 -0.069475 0.705398 -0.705398
0.195090 -0.500000 -0.980785 0.205757 0.705398 -0.678290
0.000000 0.500000 0.000000 0.205757 0.705398 -0.678290
0.382683 -0.500000 -0.923880 0.205757 0.705398 -0.678290
0.000000 -0.500000 -1.000000 0.000000 -1.000000 -0.000000
0.195090 -0.500000 -0.980785 0.000000 -1.000000 -0.000000
-0.195089 -0.500000 -0.980786 0.000000 -1.000000 -0.000000
0.555570 -0.500000 -0.831470 0.000000 -1.000000 0.000000
0.707107 -0.500000 -0.707107 0.000000 -1.000000 0.000000
0.831470 -0.500000 -0.555570 0.000000 -1.000000 0.000000
-1.000000 -0.500000 -0.000001 -0.000000 -1.000000 0.000000
-0.923879 -0.500000 -0.382684 -0.000000 -1.000000 0.000000
-0.831470 -0.500000 0.555570 -0.000000 -1.000000 0.000000
0.923880 -0.500000 -0.382683 0.000000 -1.000000 -0.000000
0.980785 -0.500000 -0.195090 0.000000 -1.000000 -0.000000
1.000000 -0.500000 -0.000000 0.000000 -1.000000 -0.000000
-0.707107 -0.500000 0.707106 0.000000 -1.000000 -0.000000
0.195090 -0.500000 0.980785 0.000000 -1.000000 0.000000
-0.195091 -0.500000 0.980785 0.000000 -1.000000 0.000000
0.707107 -0.500000 0.707107 0.000000 -1.000000 0.000000
-0.382684 -0.500000 0.923879 -0.000000 -1.000000 -0.000000
0.980785 -0.500000 0.195090 0.000000 -1.000000 0.000000
0.923880 -0.500000 0.382683 0.000000 -1.000000 0.000000
-0.980785 -0.500000 -0.195091 0.000000 -1.000000 0.000000
0.555570 -0.500000 0.831470 0.000000 -1.000000 0.000000
0.382683 -0.500000 0.923880 0.000000 -1.000000 0.000000
0.831470 -0.500000 0.555570 0.000000 -1.000000 0.000000
-0.000000 -0.500000 1.000000 0.000000 -1.000000 -0.000000
-0.555571 -0.500000 0.831469 0.000000 -1.000000 -0.000000
-0.980785 -0.500000 0.195089 0.000000 -1.000000 -0.000000
-0.923880 -0.500000 0.382683 0.000000 -1.000000 -0.000000
-0.382682 -0.500000 -0.923880 -0.000000 -1.000000 -0.000000
-0.555569 -0.500000 -0.831470 -0.000000 -1.000000 -0.000000
0.382683 -0.500000 -0.923880 0.000000 -1.000000 0.000000
-0.707106 -0.500000 -0.707108 -0.000000 -1.000000 -0.000000
-0.831469 -0.500000 -0.555571 -0.000000 -1.000000 -0.000000
3 0 1 2
3 3 4 5
3 6 7 8
3 9 10 11
3 12 13 14
3 15 16 17
3 18 19 20
3 21 22 23
3 24 25 26
3 27 28 29
3 30 31 32
3 33 34 35
3 36 37 38
3 39 40 41
3 42 43 44
3 45 46 47
3 48 49 50
3 51 52 53
3 54 55 56
3 57 58 59
3 60 61 62
3 63 64 65
3 66 67 68
3 69 70 71
3 72 73 74
3 75 76 77
3 78 79 80
3 81 82 83
3 84 85 86
3 87 88 89
3 90 91 92
3 93 94 95
3 96 97 98
3 98 97 99
3 99 100 101
3 98 99 101
3 102 103 104
3 101 105 98
3 105 106 98
3 106 107 98
3 98 107 108
3 109 110 111
3 108 107 112
3 113 114 107
3 103 102 115
3 111 116 117
3 114 118 112
3 110 109 119
3 117 109 111
3 107 114 112
3 108 112 120
3 110 112 111
3 118 111 112
3 121 104 122
3 123 98 124
3 121 102 104
3 97 125 99
3 126 124 108
3 127 126 103
3 98 108 124
3 104 103 108
3 126 108 103
